<svg width="140" height="140" viewBox="0 0 140 140" fill="none" xmlns="http://www.w3.org/2000/svg">
<path d="M27.9343 97.9343C38.2316 113.052 52.2535 120.61 70 120.61C87.7465 120.61 101.768 113.052 112.066 97.9343C111.847 91.7997 106.917 86.651 97.277 82.4883C87.6369 78.3255 78.5446 76.2441 70 76.2441C61.4554 76.2441 52.3631 78.3255 42.723 82.4883C33.0829 86.4319 28.1534 91.5806 27.9343 97.9343ZM84.7887 27.277C80.626 23.1142 75.6964 21.0329 70 21.0329C64.3036 21.0329 59.374 23.1142 55.2113 27.277C51.0485 31.4397 48.9671 36.3693 48.9671 42.0657C48.9671 47.7621 51.0485 52.6917 55.2113 56.8545C59.374 61.0172 64.3036 63.0986 70 63.0986C75.6964 63.0986 80.626 61.0172 84.7887 56.8545C88.9515 52.6917 91.0329 47.7621 91.0329 42.0657C91.0329 36.3693 88.9515 31.4397 84.7887 27.277ZM20.3756 20.7042C34.1784 6.90141 50.7199 0 70 0C89.2801 0 105.712 6.90141 119.296 20.7042C133.099 34.2879 140 50.7199 140 70C140 89.2801 133.099 105.822 119.296 119.624C105.712 133.208 89.2801 140 70 140C50.7199 140 34.1784 133.208 20.3756 119.624C6.79186 105.822 0 89.2801 0 70C0 50.7199 6.79186 34.2879 20.3756 20.7042Z" fill="#E7F3FA"/>
</svg>
