<svg width="17" height="16" viewBox="0 0 17 16" fill="none" xmlns="http://www.w3.org/2000/svg">
<path d="M1.50033 1.2H15.667C15.7387 1.2 15.8003 1.2616 15.8003 1.33333V6.33333C15.8003 6.40507 15.7387 6.46667 15.667 6.46667H1.50033C1.42859 6.46667 1.36699 6.40507 1.36699 6.33333V1.33333C1.36699 1.2616 1.42859 1.2 1.50033 1.2ZM1.50033 9.53333H15.667C15.7387 9.53333 15.8003 9.59493 15.8003 9.66667V14.6667C15.8003 14.7384 15.7387 14.8 15.667 14.8H1.50033C1.42859 14.8 1.36699 14.7384 1.36699 14.6667V9.66667C1.36699 9.59493 1.42859 9.53333 1.50033 9.53333Z" stroke="#0D2C3D" stroke-width="1.4"/>
</svg>
