<svg width="32" height="35" viewBox="0 0 32 35" fill="none" xmlns="http://www.w3.org/2000/svg">
<path d="M16 19.4762C15.0111 19.4762 14.0444 19.169 13.2222 18.5934C12.3999 18.0178 11.759 17.1997 11.3806 16.2426C11.0022 15.2855 10.9031 14.2323 11.0961 13.2162C11.289 12.2001 11.7652 11.2667 12.4645 10.5342C13.1637 9.80161 14.0546 9.30273 15.0246 9.10062C15.9945 8.89851 16.9998 9.00224 17.9134 9.3987C18.8271 9.79516 19.6079 10.4665 20.1574 11.3279C20.7068 12.1893 21 13.2021 21 14.2381C20.9984 15.6268 20.4711 16.9582 19.5338 17.9401C18.5964 18.9221 17.3256 19.4745 16 19.4762ZM16 11.0952C15.4067 11.0952 14.8266 11.2795 14.3333 11.6249C13.8399 11.9702 13.4554 12.4611 13.2284 13.0353C13.0013 13.6096 12.9419 14.2416 13.0576 14.8512C13.1734 15.4609 13.4591 16.0209 13.8787 16.4604C14.2982 16.8999 14.8328 17.1993 15.4147 17.3205C15.9967 17.4418 16.5999 17.3796 17.1481 17.1417C17.6962 16.9038 18.1648 16.501 18.4944 15.9841C18.8241 15.4673 19 14.8597 19 14.2381C18.9992 13.4048 18.6829 12.6059 18.1204 12.0167C17.558 11.4274 16.7954 11.096 16 11.0952Z" fill="white"/>
<path d="M16 32.0476L7.56401 21.6248C7.44679 21.4683 7.33079 21.3108 7.21601 21.1524C5.77499 19.1637 4.99652 16.7348 5.00001 14.2381C5.00001 11.1818 6.15894 8.25064 8.22184 6.08951C10.2847 3.92838 13.0826 2.71426 16 2.71426C18.9174 2.71426 21.7153 3.92838 23.7782 6.08951C25.8411 8.25064 27 11.1818 27 14.2381C27.0035 16.7337 26.2254 19.1615 24.785 21.1492L24.784 21.1524C24.784 21.1524 24.484 21.5651 24.439 21.6206L16 32.0476ZM8.81201 19.89C8.81401 19.89 9.04601 20.2126 9.09901 20.2818L16 28.8084L22.91 20.2703C22.954 20.2126 23.188 19.8879 23.189 19.8868C24.3662 18.2621 25.0023 16.2778 25 14.2381C25 11.7375 24.0518 9.33927 22.364 7.57107C20.6761 5.80287 18.387 4.8095 16 4.8095C13.6131 4.8095 11.3239 5.80287 9.63605 7.57107C7.94822 9.33927 7.00001 11.7375 7.00001 14.2381C6.99791 16.2791 7.63479 18.2645 8.81301 19.89H8.81201Z" fill="white"/>
</svg>
