<svg width="32" height="34" viewBox="0 0 32 34" fill="none" xmlns="http://www.w3.org/2000/svg">
<path d="M14 21.141L10.41 17.38L9 18.8572L14 24.0953L23 14.6667L21.59 13.1791L14 21.141Z" fill="white"/>
<path d="M25 5.23813H22V4.19051C22 3.63482 21.7893 3.10189 21.4142 2.70896C21.0391 2.31602 20.5304 2.09528 20 2.09528H12C11.4696 2.09528 10.9609 2.31602 10.5858 2.70896C10.2107 3.10189 10 3.63482 10 4.19051V5.23813H7C6.46957 5.23813 5.96086 5.45888 5.58579 5.85181C5.21071 6.24475 5 6.77768 5 7.33337V29.3334C5 29.8891 5.21071 30.422 5.58579 30.8149C5.96086 31.2079 6.46957 31.4286 7 31.4286H25C25.5304 31.4286 26.0391 31.2079 26.4142 30.8149C26.7893 30.422 27 29.8891 27 29.3334V7.33337C27 6.77768 26.7893 6.24475 26.4142 5.85181C26.0391 5.45888 25.5304 5.23813 25 5.23813ZM12 4.19051H20V8.38099H12V4.19051ZM25 29.3334H7V7.33337H10V10.4762H22V7.33337H25V29.3334Z" fill="white"/>
</svg>
