<svg width="140" height="140" viewBox="0 0 140 140" fill="none" xmlns="http://www.w3.org/2000/svg">
<rect width="140" height="140" rx="70" fill="#E7F3FA"/>
<path d="M70.1741 91.0124C61.7524 91.0124 53.3307 91.0124 44.9089 91.0124C44.4976 91.0124 44.0808 91.0124 43.6677 90.9698C41.5593 90.773 40.7117 89.3526 41.6107 87.4322C42.3909 85.7742 43.2421 84.1588 44.0684 82.5186C47.9696 74.7955 51.8707 67.0736 55.7718 59.3529C55.8924 59.117 56.0183 58.8812 56.1584 58.656C57.1408 57.0813 58.7367 56.8597 59.9939 58.218C60.8806 59.1685 61.6307 60.236 62.4215 61.2662C66.4409 66.5186 70.4602 71.7733 74.4796 77.0304C76.2351 79.3178 78.4463 79.442 80.5086 77.385C81.5318 76.3636 82.5319 75.3156 83.5675 74.3031C85.4347 72.4767 87.5537 72.5866 89.0787 74.7163C92.1393 78.9898 95.1237 83.3201 98.1223 87.6361C98.3566 87.9747 98.5361 88.3482 98.6542 88.7426C98.9451 89.7339 98.5337 90.5318 97.5282 90.7961C96.8978 90.947 96.2506 91.0167 95.6025 91.0035C87.1311 91.0177 78.655 91.0207 70.1741 91.0124Z" fill="white"/>
<path d="M89.061 48.6939C89.0588 50.3424 88.5672 51.953 87.6486 53.3218C86.7299 54.6905 85.4255 55.7556 83.9008 56.3821C82.376 57.0086 80.6996 57.1682 79.084 56.8408C77.4684 56.5134 75.9864 55.7136 74.8259 54.5429C73.6654 53.3722 72.8787 51.8832 72.5654 50.2648C72.2522 48.6465 72.4265 46.9715 73.0663 45.4523C73.7062 43.9331 74.7827 42.6381 76.1594 41.7315C77.5361 40.8248 79.151 40.3474 80.7994 40.3597C82.9944 40.3876 85.0906 41.2769 86.636 42.8359C88.1814 44.3949 89.0523 46.4988 89.061 48.6939Z" fill="white"/>
</svg>
