<svg width="140" height="140" viewBox="0 0 140 140" fill="none" xmlns="http://www.w3.org/2000/svg">
<rect width="140" height="140" fill="#E7F3FA"/>
<path d="M70.1732 91.0124C61.7514 91.0124 53.3297 91.0124 44.908 91.0124C44.4966 91.0124 44.0799 91.0124 43.6667 90.9698C41.5583 90.773 40.7107 89.3526 41.6097 87.4322C42.39 85.7742 43.2411 84.1588 44.0675 82.5186C47.9686 74.7955 51.8697 67.0736 55.7709 59.3529C55.8915 59.117 56.0174 58.8812 56.1574 58.656C57.1398 57.0814 58.7357 56.8597 59.993 58.218C60.8796 59.1685 61.6297 60.236 62.4205 61.2662C66.4399 66.5186 70.4593 71.7733 74.4786 77.0304C76.2341 79.3179 78.4454 79.442 80.5076 77.385C81.5308 76.3636 82.5309 75.3156 83.5665 74.3031C85.4337 72.4767 87.5527 72.5866 89.0777 74.7163C92.1384 78.9898 95.1227 83.3201 98.1213 87.6361C98.3556 87.9748 98.5352 88.3482 98.6533 88.7427C98.9441 89.7339 98.5327 90.5319 97.5273 90.7961C96.8968 90.947 96.2496 91.0167 95.6015 91.0035C87.1301 91.0177 78.654 91.0207 70.1732 91.0124Z" fill="white"/>
<path d="M89.06 48.6939C89.0578 50.3424 88.5663 51.953 87.6476 53.3218C86.7289 54.6905 85.4246 55.7556 83.8998 56.3821C82.3751 57.0086 80.6986 57.1682 79.083 56.8408C77.4675 56.5134 75.9855 55.7136 74.825 54.5429C73.6645 53.3722 72.8777 51.8832 72.5644 50.2649C72.2512 48.6465 72.4255 46.9715 73.0653 45.4523C73.7052 43.9331 74.7817 42.6381 76.1584 41.7315C77.5351 40.8248 79.15 40.3474 80.7984 40.3597C82.9934 40.3876 85.0896 41.2769 86.635 42.8359C88.1804 44.3949 89.0513 46.4988 89.06 48.6939Z" fill="white"/>
</svg>
