<svg width="15" height="15" viewBox="0 0 15 15" fill="none" xmlns="http://www.w3.org/2000/svg">
<path d="M13.2692 13.2692L10.309 10.309M10.309 10.309C10.8153 9.80261 11.217 9.20147 11.491 8.53987C11.7651 7.87827 11.9061 7.16918 11.9061 6.45307C11.9061 5.73696 11.7651 5.02787 11.491 4.36627C11.217 3.70467 10.8153 3.10353 10.309 2.59717C9.80261 2.0908 9.20147 1.68913 8.53987 1.41509C7.87827 1.14105 7.16918 1 6.45307 1C5.73696 1 5.02787 1.14105 4.36627 1.41509C3.70467 1.68913 3.10353 2.0908 2.59717 2.59717C1.57452 3.61982 1 5.00683 1 6.45307C1 7.89931 1.57452 9.28632 2.59717 10.309C3.61982 11.3316 5.00683 11.9061 6.45307 11.9061C7.89931 11.9061 9.28632 11.3316 10.309 10.309Z" stroke="white" stroke-width="2" stroke-linecap="round" stroke-linejoin="round"/>
</svg>
