<svg width="500" height="500" viewBox="0 0 500 500" fill="none" xmlns="http://www.w3.org/2000/svg">
<path d="M97.2571 429.455C183.32 474.415 322.855 474.416 408.917 429.456C494.98 384.495 494.98 311.601 408.917 266.641C322.854 221.681 183.319 221.681 97.2561 266.64C11.1941 311.6 11.1941 384.495 97.2571 429.455Z" fill="#F5F5F5"/>
<path d="M354.662 388.636C377.246 388.636 395.554 378.066 395.554 365.027C395.554 351.988 377.246 341.418 354.662 341.418C332.078 341.418 313.77 351.988 313.77 365.027C313.77 378.066 332.078 388.636 354.662 388.636Z" fill="#E0E0E0"/>
<path d="M105.596 352.701C104.99 345.763 98.716 331.83 90.729 323.45C82.742 315.07 70.847 309.472 63.046 312.925C55.781 316.141 57.45 325.896 67.106 331.612C76.762 337.329 91.135 344.314 96.114 355.22L105.705 368.296L105.596 352.701Z" fill="#27DEBF"/>
<path opacity="0.1" d="M105.596 352.701C104.99 345.763 98.716 331.83 90.729 323.45C82.742 315.07 70.847 309.472 63.046 312.925C55.781 316.141 57.45 325.896 67.106 331.612C76.762 337.329 91.135 344.314 96.114 355.22L105.705 368.296L105.596 352.701Z" fill="black"/>
<path d="M106.938 362.15C106.715 362.151 106.51 362.005 106.446 361.782C99.7309 338.503 78.889 320.926 67.049 317.674C66.778 317.6 66.6189 317.319 66.6929 317.049C66.7669 316.779 67.0409 316.614 67.3189 316.693C79.3839 320.006 100.607 337.868 107.424 361.5C107.502 361.77 107.346 362.051 107.077 362.129C107.029 362.143 106.983 362.15 106.938 362.15Z" fill="white"/>
<path d="M104.73 377.62C103.275 373.817 97.9479 367.797 89.7789 363.154C80.7419 358.017 69.7189 356.256 66.8319 351.895C63.3639 346.657 67.5459 341.056 76.3959 341.377C85.2459 341.698 101.684 352.299 105.716 370.069L104.73 377.62Z" fill="#27DEBF"/>
<path d="M106.067 373.379C105.873 373.38 105.688 373.27 105.601 373.082C96.5649 353.426 80.4619 347.657 73.2099 347.352C72.9289 347.341 72.7109 347.103 72.7229 346.822C72.7339 346.54 72.9609 346.323 73.2529 346.335C81.2719 346.671 97.3029 352.593 106.526 372.656C106.643 372.911 106.531 373.214 106.276 373.331C106.208 373.363 106.137 373.378 106.067 373.379Z" fill="white"/>
<path d="M377.172 343.705C377.02 338.123 378.572 328.759 384.073 319.414C389.96 309.414 397.73 302.713 404.26 304.75C410.342 306.647 409.004 314.901 399.861 323.89C393.445 330.197 386.949 338.203 383.982 347.345L378.837 359.126L377.172 343.705Z" fill="#27DEBF"/>
<path d="M377.172 343.705C377.02 338.123 378.572 328.759 384.073 319.414C389.96 309.414 397.73 302.713 404.26 304.75C410.342 306.647 409.004 314.901 399.861 323.89C393.445 330.197 386.949 338.203 383.982 347.345L378.837 359.126L377.172 343.705Z" fill="#27DEBF"/>
<g opacity="0.1">
<path d="M377.172 343.705C377.02 338.123 378.572 328.759 384.073 319.414C389.96 309.414 397.73 302.713 404.26 304.75C410.342 306.647 409.004 314.901 399.861 323.89C393.445 330.197 386.949 338.203 383.982 347.345L378.837 359.126L377.172 343.705Z" fill="black"/>
</g>
<path d="M378.188 347.863C378.349 347.846 378.489 347.73 378.53 347.564C382.447 331.62 392.375 314.841 401.624 308.538C401.805 308.414 401.851 308.168 401.729 307.988C401.604 307.806 401.359 307.761 401.179 307.883C391.787 314.285 381.72 331.262 377.762 347.374C377.71 347.586 377.839 347.801 378.051 347.853C378.097 347.865 378.143 347.868 378.188 347.863Z" fill="white"/>
<path d="M377.116 361.784C377.116 361.784 381.022 365.692 387.979 367.223C394.936 368.754 398.236 365.58 398.236 365.58C398.236 365.58 395.863 358.827 391.985 356.742C391.985 356.742 398.665 358.524 403.877 362.469C403.877 362.469 408.162 362.79 410.26 356.346C410.26 356.346 407.953 352.255 399.555 349.619C399.555 349.619 404.82 348.623 412.181 350.975C412.728 351.231 415.622 342.91 416.578 339.049C417.534 335.188 415.962 335.135 412.966 334.141C409.97 333.147 399.635 332.018 397.63 333.578C395.625 335.139 394.315 340.806 394.315 340.806C394.315 340.806 392.685 337.458 393.295 334.593C393.295 334.593 390.3 333.374 386.809 334.362C383.318 335.35 383.436 337.03 383.288 339.518C383.129 342.179 383.287 343.961 383.871 346.989C383.871 346.989 381.631 344.805 381.997 337.268C381.997 337.268 377.139 340.948 375.081 344.237C373.021 347.522 372.961 356.445 377.116 361.784Z" fill="#27DEBF"/>
<path d="M377.092 362.179C377.239 362.188 377.385 362.114 377.461 361.976C383.831 350.539 405.719 338.112 413.355 337.094C413.571 337.065 413.724 336.866 413.695 336.649C413.666 336.432 413.465 336.282 413.25 336.309C405.488 337.344 383.241 349.97 376.77 361.591C376.663 361.782 376.732 362.023 376.923 362.129C376.978 362.159 377.035 362.175 377.092 362.179Z" fill="white"/>
<path d="M111.001 385.284L108.28 383.713C106.07 382.437 104.278 379.333 104.278 376.78V138.286C104.278 135.734 106.07 132.63 108.28 131.354L218.274 67.848C220.484 66.572 224.068 66.572 226.279 67.848L229.003 69.42C231.214 70.696 233.006 73.8 233.006 76.352V314.846C233.006 317.398 231.214 320.502 229.004 321.778L119.007 385.284C116.795 386.561 113.211 386.561 111.001 385.284Z" fill="#37474F"/>
<path d="M120.367 142.955L105.449 134.342C104.725 135.597 104.277 137.01 104.277 138.286V376.78C104.277 379.332 106.069 382.436 108.279 383.713L111 385.284C113.211 386.56 116.794 386.56 119.005 385.284L120.367 384.498V142.955Z" fill="#263238"/>
<path d="M115.003 144.48V382.974C115.003 385.526 116.795 386.561 119.006 385.285L229.003 321.779C231.213 320.503 233.005 317.399 233.005 314.847V76.353C233.005 73.801 231.213 72.766 229.002 74.042L119.005 137.548C116.795 138.824 115.003 141.928 115.003 144.48Z" fill="#455A64"/>
<path d="M123.797 159.555L223.816 101.814C225.711 100.72 227.247 101.607 227.247 103.795V294.062C227.247 296.25 225.711 298.91 223.816 300.004L123.798 357.745C121.903 358.839 120.367 357.952 120.367 355.764L120.366 165.498C120.367 163.309 121.902 160.649 123.797 159.555Z" fill="#FAFAFA"/>
<g opacity="0.4">
<path d="M174.361 174.552C185.574 168.077 194.665 173.326 194.665 186.273C194.665 199.221 185.574 214.966 174.361 221.44C163.148 227.913 154.057 222.666 154.057 209.717C154.057 196.769 163.148 181.025 174.361 174.552Z" fill="#27DEBF"/>
<path d="M214.374 243.798C214.374 222.526 199.438 213.082 181.019 223.719L169.501 230.367C151.082 241.003 136.146 266.869 136.146 288.141V293.866L214.374 248.731V243.798Z" fill="#27DEBF"/>
</g>
<path d="M174.003 111.988C175.484 111.133 176.685 111.826 176.685 113.537C176.685 115.247 175.484 117.327 174.003 118.182C172.522 119.037 171.321 118.344 171.321 116.634C171.321 114.923 172.522 112.843 174.003 111.988Z" fill="#263238"/>
<path d="M166.259 125.384C171.708 122.372 181.429 116.586 186.801 113.426C187.713 112.89 188.452 113.259 188.452 114.252C188.452 115.245 187.709 116.478 186.793 117.007L166.216 128.891C165.3 129.42 164.557 129.044 164.557 128.051C164.557 127.06 165.333 125.896 166.259 125.384Z" fill="#263238"/>
<path d="M161.06 128.389C161.892 127.909 162.566 128.298 162.566 129.258C162.566 130.218 161.892 131.386 161.06 131.866C160.228 132.346 159.554 131.957 159.554 130.996C159.554 130.036 160.229 128.869 161.06 128.389Z" fill="#263238"/>
<path d="M174.003 334.951C176.965 333.241 179.367 334.627 179.367 338.048C179.367 341.469 176.966 345.628 174.003 347.338C171.041 349.048 168.639 347.662 168.639 344.241C168.639 340.821 171.041 336.662 174.003 334.951Z" fill="#263238"/>
<path d="M265.214 268.144L253.152 261.181C253.152 261.181 253.14 261.181 253.127 261.181L253.002 261.106L252.989 261.131C246.991 257.744 238.768 258.244 229.658 263.505C221.136 268.416 213.363 276.614 207.502 286.099C200.729 297.021 196.468 309.667 196.468 321.001C196.468 331.573 200.167 338.996 206.153 342.47V342.483L206.191 342.495L218.438 349.49C224.486 353.346 233.025 353.004 242.497 347.535C260.832 336.949 275.696 311.206 275.697 290.034C275.698 279.013 271.664 271.414 265.214 268.144Z" fill="#27DEBF"/>
<path opacity="0.1" d="M218.199 349.354L206.188 342.491L206.15 342.478V342.465C200.163 338.996 196.469 331.569 196.469 320.998C196.469 309.663 200.727 297.026 207.503 286.104L220.316 293.493C213.54 304.414 209.294 317.039 209.294 328.362C209.294 338.47 212.675 345.697 218.199 349.354Z" fill="black"/>
<path opacity="0.4" d="M264.966 268.007C259.054 265.139 251.164 265.865 242.497 270.863C233.968 275.798 226.19 284.001 220.316 293.495L207.503 286.106C213.364 276.612 221.142 268.421 229.659 263.511C238.764 258.251 246.993 257.75 252.992 261.131L253.004 261.106L253.129 261.181C253.142 261.181 253.154 261.181 253.154 261.181L264.966 268.007Z" fill="white"/>
<path d="M259.785 281.496L255.188 278.843L237.176 321.289L240.248 323.062L259.785 281.496Z" fill="white"/>
<path d="M233.646 311.813L229.049 309.159L224.113 319.61L228.71 322.263L233.646 311.813Z" fill="white"/>
<path d="M241.432 335.509L228.71 322.263L233.646 311.813L240.248 323.062L259.785 281.496L267.026 288.562L241.432 335.509Z" fill="#F5F5F5"/>
<path d="M224.113 319.61L228.71 322.263L241.432 335.509L236.838 332.883L224.113 319.61Z" fill="#E0E0E0"/>
<path d="M358.956 163.923C369.806 163.923 378.601 155.127 378.601 144.278V143.119C378.601 133.924 371.147 126.469 361.951 126.469H355.96C346.765 126.469 339.31 133.923 339.31 143.119V144.278C339.311 155.128 348.107 163.923 358.956 163.923Z" fill="#263238"/>
<path d="M338.738 358.185C336.458 360.682 333.942 362.683 331.242 364.705C330.838 365.007 330.42 365.327 330.201 365.782C329.847 366.517 329.298 368.337 332.65 369.506C335.925 370.649 340.009 370.381 342.992 368.514C345.745 366.791 345.868 363.206 348.465 361.162C350.39 359.647 352.793 359.258 354.349 357.28C355.432 355.902 355.15 354.068 354.585 351.798C353.969 349.32 353.685 347.445 352.864 347.635L352.999 348.775C351.976 350.408 346.672 350.89 344.311 349.763C344.311 349.763 340.226 356.556 338.738 358.185Z" fill="#263238"/>
<path d="M336.413 360.503C336.413 360.5 336.413 360.489 336.413 360.485C337.21 359.755 337.991 359.002 338.739 358.183C339.698 357.133 341.737 353.94 343.067 351.803C343.876 350.503 344.464 348.949 344.279 347.236C344.094 345.523 343.619 341.128 343.619 341.128L352.023 340.534L353 348.774C353.203 350.642 351.66 352.299 348.925 354.655C346.191 357.011 342.717 362.507 340.242 363.89C337.766 365.273 335.996 365.221 334.94 364.514C333.853 363.787 333.746 363.228 336.413 360.503Z" fill="#B16668"/>
<path d="M370.695 358.936V357.673C370.197 359.155 367.886 365.532 364.382 368.729C361.596 371.27 357.796 374.205 356.829 377.038C355.824 379.984 362.118 380.974 364.72 380.513C367.744 379.977 371.657 378.262 373.786 375.645C375.283 373.805 376.237 371.625 377.306 370.178C378.375 368.731 380.84 367.116 381.418 365.442C381.736 364.522 381.358 362.508 380.912 360.806C380.503 359.244 380.059 357.527 379.526 357.674C379.524 357.864 379.526 358.637 379.526 358.637C378.885 359.348 377.111 360.053 375.11 360.13C373.819 360.178 370.684 359.922 370.695 358.936Z" fill="#263238"/>
<path d="M361.861 370.964C362.725 370.193 363.594 369.439 364.383 368.72C366.831 366.486 368.697 362.699 369.769 360.115C370.381 358.64 370.696 357.065 370.696 355.467V350.433H379.528V358.627V358.847L379.484 358.869C379.059 360.704 375.006 365.586 372.703 368.769C371.16 370.903 368.226 373.618 364.722 374.086C361.4 374.53 359.702 373.483 361.861 370.964Z" fill="#B16668"/>
<path d="M377.77 221.679C384.617 236.633 377.523 289.313 377.523 289.313C377.729 291.74 380.504 296.515 381.537 307.196C382.758 319.816 379.621 351.504 379.621 351.504C379.621 351.504 375.532 354.178 370.695 351.859C370.695 351.859 362.278 304.134 360.695 291.586C359.314 280.635 356.662 254.896 356.662 254.896L349.78 291.82C349.78 291.82 352.017 297.83 352.469 302.504C353.184 309.885 352.647 344.024 352.647 344.024C352.647 344.024 349.628 346.321 343.844 345.469C343.844 345.469 333.825 298.735 333.05 289.852C332.587 284.546 338.635 219.491 338.635 219.491L377.77 221.679Z" fill="#27DEBF"/>
<path opacity="0.6" d="M377.77 221.679C384.617 236.633 377.523 289.313 377.523 289.313C377.729 291.74 380.504 296.515 381.537 307.196C382.758 319.816 379.621 351.504 379.621 351.504C379.621 351.504 375.532 354.178 370.695 351.859C370.695 351.859 362.278 304.134 360.695 291.586C359.314 280.635 356.662 254.896 356.662 254.896L349.78 291.82C349.78 291.82 352.017 297.83 352.469 302.504C353.184 309.885 352.647 344.024 352.647 344.024C352.647 344.024 349.628 346.321 343.844 345.469C343.844 345.469 333.825 298.735 333.05 289.852C332.587 284.546 338.635 219.491 338.635 219.491L377.77 221.679Z" fill="black"/>
<path opacity="0.3" d="M356.662 254.896L354.439 242.667C354.439 242.667 345.035 240.719 340.77 236.709C340.77 236.709 345.245 242.275 351.891 244.098L354.388 254.792L350.456 288.194L356.662 254.896Z" fill="black"/>
<path d="M388.93 215.178C388.86 214.197 387.022 203.726 385.757 197.869L373.447 201.642L375.635 212.417L386.007 220.741C389.255 220.096 389 216.159 388.93 215.178Z" fill="#B16668"/>
<path d="M329.393 193.102L323.574 203.769L332.626 211.528L340.916 198.382L329.393 193.102Z" fill="#B16668"/>
<path d="M351.226 169.326C345.456 169.385 339.101 171.484 336.914 176.009C334.728 180.534 328.673 193.016 328.673 193.016C328.673 193.016 334.06 200.336 342.15 199.81L351.226 169.326Z" fill="#27DEBF"/>
<path opacity="0.6" d="M351.226 169.326C345.456 169.385 339.101 171.484 336.914 176.009C334.728 180.534 328.673 193.016 328.673 193.016C328.673 193.016 334.06 200.336 342.15 199.81L351.226 169.326Z" fill="black"/>
<path d="M363.174 169.532L367.976 169.726C373.203 170.984 375.087 174.569 377.283 179.206C378.955 182.736 378.974 186.829 377.698 190.52L371.581 208.216C371.581 208.216 374.445 215.139 377.77 221.68C362.419 230.248 343.251 225.744 338.635 219.492C338.44 218.166 338.705 212.188 338.333 205.386C337.936 198.133 336.94 189.944 338.08 185.46C340.197 177.138 344.162 169.326 352.055 169.326L363.174 169.532Z" fill="#F5F5F5"/>
<path d="M367.975 169.725C373.214 170.466 380.906 171.522 383.558 183.974C386.246 196.594 386.763 199.598 386.763 199.598C386.763 199.598 382.182 204.168 373.491 204.127C373.491 204.127 365.826 179.346 367.975 169.725Z" fill="#27DEBF"/>
<path opacity="0.6" d="M367.975 169.725C373.214 170.466 380.906 171.522 383.558 183.974C386.246 196.594 386.763 199.598 386.763 199.598C386.763 199.598 382.182 204.168 373.491 204.127C373.491 204.127 365.826 179.346 367.975 169.725Z" fill="black"/>
<path d="M373.259 203.358C372.295 200.05 371.271 196.273 370.309 192.211C370.309 192.211 370.348 201.057 371.858 207.409L373.259 203.358Z" fill="#EBEBEB"/>
<path d="M345.765 134.414C343.69 135.64 341.125 140.86 341.378 151.801C341.593 161.074 344.598 163.364 346.107 164.025C347.616 164.685 350.527 164.284 353.357 163.812V169.377C353.357 169.377 349.446 173.919 349.693 176.472C349.939 179.024 355.34 179.627 359 177.134C362.66 174.641 365.006 170.847 365.006 170.847V157.395C365.006 157.395 366.916 159.946 370.041 157.871C373.166 155.796 373.284 150.66 371.468 148.816C369.652 146.972 365.736 147.556 365.006 150.104C365.006 150.104 360.493 150.269 354.484 146.967C348.473 143.664 346.164 138.01 345.765 134.414Z" fill="#B16668"/>
<path d="M351.731 149.471C351.697 150.139 352.192 150.705 352.835 150.736C353.478 150.767 354.027 150.25 354.06 149.581C354.094 148.913 353.599 148.346 352.956 148.316C352.313 148.286 351.765 148.803 351.731 149.471Z" fill="#263238"/>
<path d="M351.42 157.332L348.712 158.196C348.937 158.971 349.725 159.406 350.473 159.168C351.221 158.929 351.645 158.107 351.42 157.332Z" fill="#9A4A4D"/>
<path d="M342.17 145.891L344.529 144.256C344.099 143.582 343.221 143.402 342.57 143.854C341.919 144.305 341.74 145.217 342.17 145.891Z" fill="#263238"/>
<path d="M342.714 148.628C342.68 149.296 343.175 149.862 343.818 149.893C344.461 149.924 345.01 149.407 345.043 148.738C345.076 148.07 344.582 147.504 343.939 147.473C343.297 147.443 342.748 147.96 342.714 148.628Z" fill="#263238"/>
<path d="M348.215 147.961L348.03 154.98L344.336 153.836L348.215 147.961Z" fill="#9A4A4D"/>
<path d="M353.357 163.812C356.339 163.421 362.474 161.658 363.431 159.233C363.431 159.233 363.112 160.757 361.28 162.328C359.447 163.899 353.358 165.668 353.358 165.668V163.812H353.357Z" fill="#9A4A4D"/>
<path d="M304.551 192.446L338.405 201.362L348.398 243.377L316.212 234.029L304.551 192.446Z" fill="#27DEBF"/>
<path opacity="0.15" d="M319.311 220.247C318.997 221.105 317.144 223.487 313.203 223.299L312.716 221.561L319.311 220.247Z" fill="black"/>
<path opacity="0.15" d="M326.877 221.561C327.026 222.68 329.329 224.755 333.22 226.052C337.648 227.528 344.443 226.747 344.443 226.747L343.834 224.657L326.877 221.561Z" fill="black"/>
<path opacity="0.15" d="M314.462 198.53C314.462 198.53 314.337 197.952 314.183 197.239C314.029 196.526 316.015 196.495 318.621 197.171L323.609 198.465C326.214 199.141 328.451 200.266 328.605 200.98L328.884 202.271L314.462 198.53Z" fill="black"/>
<path d="M312.116 193.659C312.018 193.213 312.823 193.097 313.914 193.398L315.889 193.944C315.889 193.944 315.3 191.152 319.683 192.128C324.066 193.104 325.024 196.275 325.024 196.275C325.024 196.275 325.968 196.543 327.133 196.874C328.298 197.205 329.353 197.833 329.491 198.276L329.74 199.079L312.301 194.488C312.301 194.488 312.214 194.105 312.116 193.659Z" fill="#37474F"/>
<path d="M314.517 195.054C316.115 195.439 316.779 195.652 317.018 196.751C317.291 198.007 317.402 198.928 317.402 198.928L325.121 200.968C325.121 200.968 324.748 199.378 324.629 198.759C324.51 198.139 324.773 197.766 326.001 198.091L326.105 197.599L314.011 194.52L314.517 195.054Z" fill="#37474F"/>
<path d="M314.252 198.652C314.252 198.652 314.127 198.074 313.973 197.361C313.819 196.648 315.805 196.617 318.411 197.293L323.399 198.587C326.004 199.262 328.241 200.388 328.395 201.102L328.674 202.393L314.252 198.652Z" fill="#37474F"/>
<path d="M386.007 220.741L375.635 212.417C375.635 212.417 352.716 216.5 350.022 216.712C347.329 216.924 344.338 215.022 343.311 212.378C342.284 209.734 340.476 210.063 340.476 210.063C340.476 210.063 341.273 213.414 341.528 214.484C341.782 215.554 335.327 216.433 331.748 215.221C328.168 214.009 322.985 215.769 326.196 220.644C329.407 225.519 335.649 226.081 339.986 226.085C341.185 226.086 343.315 225.995 345.409 225.723C346.812 225.541 348.208 225.399 349.619 225.299C358.493 224.664 381.973 222.007 386.007 220.741Z" fill="#B16668"/>
<path d="M307.995 204.729C307.995 204.729 309.208 209.054 309.497 210.087C309.787 211.119 313.723 212.994 316.211 213.678C318.699 214.362 321.421 215.172 320.244 218.651C319.158 221.859 315.063 222.592 312.978 222.501C310.893 222.41 308.039 220.418 306.914 217.206C305.48 213.109 306.253 208.732 305.683 206.339C305.115 203.946 306.748 203.302 307.995 204.729Z" fill="#B16668"/>
<path d="M376.137 185.46C369.989 185.46 365.005 180.476 365.005 174.328V158.703C371.153 158.703 376.137 163.687 376.137 169.835V185.46Z" fill="#263238"/>
</svg>
